<svg width="189" height="20" viewBox="0 0 189 20" fill="none" xmlns="http://www.w3.org/2000/svg">
<g id="Logo" clip-path="url(#clip0_4809_376)">
<path id="Vector" d="M0.951599 0.386475H4.14043L8.14138 15.7949L12.3642 0.386475H15.637L20.0566 15.7949L23.8044 0.386475H27.0216L21.9023 19.6124H18.2384L13.9862 4.84116L9.70688 19.6124H6.09847L0.951599 0.386475Z" fill="black"/>
<path id="Vector_2" d="M29.334 0.386475H32.4384V8.40925H42.5923V0.386475H45.6968V19.6124H42.5923V11.1746H32.4384V19.6124H29.334V0.386475Z" fill="black"/>
<path id="Vector_3" d="M48.0096 10.0141C48.0096 4.2048 52.1491 0 57.8274 0C63.5057 0 67.6456 4.2048 67.6456 10.0141C67.6456 15.7952 63.5057 19.9995 57.8274 19.9995C52.1491 19.9995 48.0096 15.7952 48.0096 10.0141ZM64.3724 10.0141C64.3724 5.7816 61.6871 2.76632 57.8274 2.76632C54.0516 2.76632 51.3099 5.7816 51.3099 10.0141C51.3099 14.2465 54.0516 17.2337 57.8274 17.2337C61.6871 17.2337 64.3724 14.2465 64.3724 10.0141Z" fill="black"/>
<path id="Vector_4" d="M69.9584 0.386475H73.0629V16.8461H82.9646V19.6124H69.9584V0.386475Z" fill="black"/>
<path id="Vector_5" d="M85.2774 0.386475H98.8145V3.07072H88.3814V8.54803H96.829V11.2309H88.3814V16.9286H98.8709V19.6124H85.2774L85.2774 0.386475Z" fill="black"/>
<path id="Vector_6" d="M161.848 0.000488281H169.568C173.735 0.000488281 176.532 2.24167 176.532 5.94853C176.532 9.68259 173.735 11.9233 169.568 11.9233H164.952V19.2264H161.848V0.000488281ZM169.372 9.23998C171.889 9.23998 173.259 8.05093 173.259 5.94853C173.259 3.84613 171.889 2.68428 169.372 2.68428H164.952V9.23999L169.372 9.23998Z" fill="black"/>
<path id="Vector_7" d="M179.2 0.949308H177.689V0H181.755V0.949308H180.252V4.8512H179.2V0.949308Z" fill="black"/>
<path id="Vector_8" d="M182.604 0H184.072L185.308 2.70177L186.573 0H188.048V4.8512H186.996V1.25637L185.825 3.83227H184.827L183.655 1.25637V4.8512H182.604V0Z" fill="black"/>
<path id="Vector_9" d="M144.85 0.000488281H152.57C156.738 0.000488281 159.535 2.24167 159.535 5.94853C159.535 9.68259 156.738 11.9233 152.57 11.9233H147.955V19.2264H144.85V0.000488281ZM152.374 9.23998C154.892 9.23998 156.262 8.05093 156.262 5.94853C156.262 3.84613 154.892 2.68428 152.374 2.68428H147.955V9.23999L152.374 9.23998Z" fill="black"/>
<path id="Vector_10" d="M108.653 14.1354C108.653 13.3336 108.821 12.4484 109.073 11.701L111.982 12.5033C111.814 13.0017 111.758 13.5273 111.758 13.9971C111.758 16.1272 113.743 17.3997 116.681 17.3997C119.394 17.3997 121.072 16.2378 121.072 14.3839C121.072 12.7522 119.646 11.9505 117.827 11.5632L115.254 11.0653C110.835 10.2077 109.24 8.32615 109.24 5.53217C109.24 2.24071 112.15 0 116.122 0C121.044 0 123.618 2.37903 123.897 6.50084L120.821 6.91533C120.457 4.2048 119.086 2.60034 116.037 2.60034C113.883 2.60034 112.345 3.62388 112.345 5.39432C112.345 7.16476 114.024 7.91167 115.954 8.29849L118.527 8.79689C122.667 9.571 124.177 11.4521 124.177 14.1354C124.177 17.8146 120.904 19.9995 116.597 19.9995C111.478 19.9995 108.653 17.5103 108.653 14.1354Z" fill="black"/>
<path id="Vector_11" d="M126.49 12.1436V0.386719H129.594V11.9776C129.594 15.3797 131.273 17.2336 134.489 17.2336C137.678 17.2336 139.412 15.3797 139.412 11.9776V0.386719H142.517V12.1436C142.517 17.1778 139.692 19.9999 134.489 19.9999C129.343 19.9999 126.49 17.1778 126.49 12.1436Z" fill="black"/>
</g>
<defs>
<clipPath id="clip0_4809_376">
<rect width="187.097" height="20" fill="white" transform="translate(0.951599)"/>
</clipPath>
</defs>
</svg>
