<svg width="109" height="18" viewBox="0 0 109 18" fill="none" xmlns="http://www.w3.org/2000/svg">
<g id="reviewsio-logo1">
<g id="Group">
<g id="Group_2">
<path id="Vector" d="M28.058 13.9216L25.2462 10.3177C27.0515 9.89681 28.3137 8.72336 28.3137 6.77844V6.74522C28.3137 5.76963 27.9554 4.90169 27.3502 4.2985C26.5768 3.52848 25.3658 3.06775 23.8548 3.06775H19.3942C18.9559 3.06775 18.5783 3.43999 18.5783 3.89696V14.4924C18.5783 14.9495 18.9559 15.3218 19.3942 15.3218C19.8514 15.3218 20.2264 14.9485 20.2264 14.4924V10.6258H23.4219L26.7307 14.9057C26.9124 15.147 27.1577 15.3218 27.4809 15.3218C27.8981 15.3218 28.3137 14.9457 28.3137 14.5087C28.3137 14.287 28.2188 14.1022 28.058 13.9216ZM26.6485 6.79599L26.6487 6.82979H26.6485C26.6485 8.27249 25.426 9.12012 23.7352 9.12012H20.2264V4.60721H23.7522C25.5696 4.60721 26.6485 5.41857 26.6485 6.79599Z" fill="black"/>
<path id="Vector_2" d="M30.7159 14.4078C30.7159 14.8642 31.0935 15.2366 31.5318 15.2366H39.023C39.4478 15.2366 39.7873 14.898 39.7873 14.475C39.7873 14.0526 39.448 13.714 39.023 13.714H32.3641V9.86243H38.1718C38.5968 9.86243 38.9367 9.52442 38.9367 9.1014C38.9367 8.69942 38.5968 8.3398 38.1718 8.3398H32.3641V4.59096H38.9381C39.3622 4.59096 39.703 4.25237 39.703 3.82935C39.703 3.40634 39.3622 3.06775 38.9381 3.06775H31.5318C31.0937 3.06775 30.7159 3.43999 30.7159 3.8971V14.4078Z" fill="black"/>
<path id="Vector_3" d="M46.7169 15.3725L46.8062 15.3722C47.2522 15.3646 47.53 15.1145 47.7063 14.7235L52.3231 4.10542C52.3642 4.00329 52.385 3.90117 52.385 3.77858C52.385 3.36093 52.0304 2.98303 51.5691 2.98303C51.2036 2.98303 50.9122 3.25779 50.7694 3.54082C50.7678 3.54401 50.7663 3.5472 50.7649 3.55054L46.7685 13.0822L42.7878 3.58434C42.6459 3.24053 42.3565 2.98303 41.9502 2.98303C41.4903 2.98303 41.1166 3.38008 41.1166 3.79483C41.1166 3.93975 41.1388 4.04275 41.2004 4.16606L45.7939 14.7203C45.954 15.1178 46.2572 15.3725 46.7169 15.3725Z" fill="black"/>
<path id="Vector_4" d="M54.5658 3.81224V14.4923C54.5658 14.9494 54.9434 15.3216 55.3817 15.3216C55.8389 15.3216 56.2139 14.9484 56.2139 14.4923V3.81224C56.2139 3.35615 55.8389 2.98303 55.3817 2.98303C54.9434 2.98303 54.5658 3.35513 54.5658 3.81224Z" fill="black"/>
<path id="Vector_5" d="M67.4721 3.06804L67.4523 3.06775H60.0455C59.608 3.06775 59.2302 3.43999 59.2302 3.8971V14.4078C59.2302 14.8642 59.6079 15.2366 60.0455 15.2366C60.0454 15.2366 67.5372 15.2366 67.5372 15.2366C67.9615 15.2366 68.3015 14.898 68.3015 14.475C68.3015 14.0526 67.9615 13.714 67.5372 13.714H60.8783V9.86243H66.6855C67.1112 9.86243 67.4504 9.52442 67.4504 9.1014C67.4504 8.69942 67.1112 8.3398 66.6855 8.3398H60.8783V4.59096H67.4523C67.8764 4.59096 68.2172 4.25237 68.2172 3.82935C68.2172 3.41301 67.8869 3.07834 67.4721 3.06804Z" fill="black"/>
<path id="Vector_6" d="M82.0733 15.3891H82.2132C82.6104 15.3807 82.8959 15.1097 83.0357 14.7113C83.0351 14.7126 86.8494 4.16866 86.8494 4.16866C86.8498 4.16721 86.8503 4.16591 86.8508 4.16446C86.8889 4.0484 86.9434 3.91131 86.9434 3.79526C86.9434 3.37964 86.5487 2.98346 86.1104 2.98346C85.7182 2.98346 85.4437 3.24197 85.3193 3.61189C85.3199 3.6103 82.1644 12.6473 82.1644 12.6473L79.1887 3.61218C79.0655 3.24313 78.7924 2.98346 78.3813 2.98346V2.98476L78.2956 2.98346C77.8633 2.98346 77.6108 3.24313 77.4876 3.61218L74.512 12.647L71.3735 3.64352C71.2518 3.28041 70.9399 2.98346 70.5319 2.98346C70.0749 2.98346 69.6827 3.37775 69.6827 3.81223C69.6827 3.93017 69.7185 4.04797 69.7579 4.16518L73.5727 14.7116C73.7131 15.1291 73.9988 15.3812 74.3952 15.3891H74.5351C74.9316 15.3807 75.2179 15.1095 75.3569 14.711L78.296 6.01421L81.2515 14.7113C81.3912 15.1097 81.6775 15.3807 82.0733 15.3891Z" fill="black"/>
<path id="Vector_7" d="M95.5422 12.0002V12.034C95.5422 13.1291 94.5365 13.9005 93.0381 13.9005C91.5657 13.9005 90.4726 13.4562 89.3806 12.535L89.3775 12.5323C89.2696 12.4272 89.079 12.3403 88.867 12.3403C88.4267 12.3403 88.0674 12.6936 88.0674 13.1527C88.0674 13.4249 88.1962 13.6546 88.3842 13.783C89.739 14.8535 91.2156 15.4062 92.9871 15.4062C95.4491 15.4062 97.2074 14.0147 97.2074 11.8986V11.8641C97.2074 9.984 95.9592 8.95823 93.2064 8.36055C93.2063 8.36055 93.2061 8.3604 93.2058 8.3604C90.705 7.82656 90.0909 7.26993 90.0909 6.20223V6.16843C90.0909 5.17153 91.0302 4.40397 92.4759 4.40397C93.5507 4.40397 94.4929 4.70136 95.4686 5.40915C95.4689 5.40944 95.4692 5.40958 95.4695 5.40987C95.6148 5.51374 95.761 5.55668 95.9496 5.55668C96.3903 5.55668 96.7478 5.20156 96.7478 4.76127C96.7478 4.45156 96.5643 4.22278 96.3977 4.09817C96.3969 4.09759 96.396 4.09686 96.3951 4.09628C95.28 3.29827 94.1135 2.89832 92.51 2.89832C90.1505 2.89832 88.442 4.34435 88.442 6.28739L88.5938 6.43855C88.5937 6.43855 88.442 6.2884 88.442 6.2884V6.31988L88.5938 6.47177L88.442 6.32075C88.442 8.33995 89.7244 9.27912 92.5633 9.89319C92.5636 9.89319 92.5639 9.89333 92.5642 9.89333C94.9462 10.394 95.5422 10.9512 95.5422 12.0002Z" fill="black"/>
</g>
<g id="Group_3">
<path id="Vector_8" d="M99.0837 13.6538L99.0693 13.6536C98.7492 13.6536 98.5211 13.882 98.5211 14.1898V14.3795C98.5211 14.6869 98.7497 14.9254 99.0693 14.9254C99.3777 14.9254 99.6078 14.6875 99.6078 14.3795C99.6078 14.4297 99.567 14.4702 99.5167 14.4702C99.5167 14.4702 99.6078 14.4601 99.6078 14.3753V14.1898C99.6078 13.8862 99.3855 13.6607 99.0837 13.6538ZM98.6201 14.4689C98.6152 14.4699 98.6121 14.4702 98.6121 14.4702C98.6149 14.4702 98.6177 14.4702 98.6204 14.4699L98.6201 14.4689Z" fill="black"/>
<path id="Vector_9" d="M101.027 10.2077V14.4648C101.027 14.7245 101.229 14.9254 101.488 14.9254C101.751 14.9254 101.942 14.7251 101.942 14.4648V10.2077C101.942 9.94729 101.74 9.74709 101.479 9.74709C101.23 9.74709 101.027 9.95947 101.027 10.2077ZM100.96 8.47238C100.96 8.75077 101.189 8.95169 101.479 8.95169C101.781 8.95169 102.008 8.75019 102.008 8.47238V8.34966C102.008 8.05996 101.781 7.86963 101.479 7.86963C101.189 7.86963 100.96 8.05938 100.96 8.34966L100.96 8.47238Z" fill="black"/>
<path id="Vector_10" fill-rule="evenodd" clip-rule="evenodd" d="M108.475 12.3432L108.475 12.3226C108.475 10.8885 107.351 9.69025 105.823 9.69025C104.284 9.69025 103.16 10.9082 103.16 12.3414L103.179 12.3602L103.16 12.3419V12.3602C103.16 13.7938 104.275 14.9919 105.803 14.9919C107.341 14.9919 108.474 13.7755 108.475 12.3432ZM107.541 12.3602V12.3414C107.541 11.3401 106.791 10.516 105.803 10.516C104.789 10.516 104.094 11.3398 104.094 12.3226V12.3414C104.094 13.3425 104.835 14.156 105.823 14.156C106.836 14.156 107.541 13.3429 107.541 12.3602Z" fill="black"/>
</g>
</g>
<g id="Group_4">
<g id="Group_5">
<path id="Vector_11" fill-rule="evenodd" clip-rule="evenodd" d="M13.6216 4.00562L12.8896 4.37119C14.3165 5.51853 15.0141 7.00054 15.1438 8.79386C15.0354 12.2553 13.3951 14.4801 10.5775 15.4342C7.32227 16.4108 5.25952 15.6206 3.26349 13.5956L3.13776 14.374L3.94928 15.216C6.77213 18.1451 11.4523 18.2413 14.394 15.4306C17.3358 12.6197 17.4324 7.95987 14.6094 5.03066L13.6216 4.00562Z" fill="#FEEF7C"/>
<path id="Vector_12" fill-rule="evenodd" clip-rule="evenodd" d="M2.73624 13.9403L3.22665 13.5138C1.1891 10.6388 1.10372 6.42982 3.89219 4.11265C5.95917 2.39505 10.0605 1.50477 13.3417 4.38132L13.5866 3.95236L12.787 3.12257C9.96404 0.193507 5.28402 0.0973271 2.34214 2.90816C-0.5996 5.71884 -0.69605 10.3789 2.1268 13.3079L2.73624 13.9403Z" fill="#5CD3CB"/>
</g>
<path id="Vector_13" d="M0.973328 9.19017C0.973328 13.2599 4.28731 16.5596 8.37465 16.5596C12.4627 16.5596 15.7766 13.2599 15.7766 9.19017C15.7766 5.11972 12.4627 1.82001 8.37465 1.82001C4.28731 1.82001 0.973328 5.11972 0.973328 9.19017ZM6.12497 10.5231C6.20277 10.2779 6.11623 10.0107 5.90934 9.85676C5.36153 9.44941 4.28149 8.64631 3.55578 8.10666C3.45102 8.02876 3.40819 7.89283 3.44942 7.76923C3.49065 7.64564 3.60663 7.56237 3.73746 7.56237H6.55025C6.81207 7.56237 7.04431 7.39525 7.12663 7.14791C7.34837 6.48103 7.7891 5.15569 8.08137 4.27716C8.12245 4.15371 8.23828 4.07015 8.36897 4.07001C8.49966 4.06986 8.61592 4.15299 8.6573 4.27629C8.95263 5.15555 9.3986 6.48306 9.62253 7.14965C9.70543 7.39612 9.93723 7.56237 10.1983 7.56237C10.8637 7.56237 12.1455 7.56237 13.0183 7.56237C13.1487 7.56237 13.2646 7.64535 13.306 7.76865C13.3474 7.89196 13.3051 8.02774 13.2008 8.10594C12.4773 8.64863 11.3967 9.45898 10.85 9.86894C10.6443 10.0232 10.5588 10.2899 10.6364 10.5342C10.8478 11.1989 11.2718 12.5319 11.5582 13.4324C11.5982 13.5582 11.5515 13.6954 11.443 13.7711C11.3345 13.8468 11.1892 13.8438 11.084 13.7634C10.3571 13.2078 9.29515 12.3962 8.73904 11.9713C8.52035 11.8041 8.21614 11.8046 7.99803 11.9726C7.4473 12.3965 6.39975 13.203 5.679 13.7579C5.5741 13.8387 5.42855 13.8423 5.31971 13.7666C5.21088 13.691 5.16396 13.5538 5.20388 13.4279C5.49032 12.5248 5.91371 11.1895 6.12497 10.5231Z" fill="black"/>
</g>
</g>
</svg>
