<svg width="109" height="150" viewBox="0 0 109 150" fill="none" xmlns="http://www.w3.org/2000/svg">
<path id="Vector" d="M0.678492 105.386C0.678492 99.4127 1.84549 92.8178 3.59605 87.2499L23.8216 93.2265C22.6546 96.9396 22.2656 100.855 22.2656 104.355C22.2656 120.224 36.0724 129.705 56.4989 129.705C75.3629 129.705 87.0335 121.049 87.0335 107.237C87.0335 95.0814 77.1136 89.1082 64.4706 86.2229L46.5791 82.5133C15.8468 76.1245 4.75988 62.1069 4.75988 41.2918C4.75988 16.7705 24.9888 0.0771484 52.6088 0.0771484C86.839 0.0771484 104.734 17.8009 106.679 48.5084L85.2861 51.5964C82.7575 31.4029 73.2234 19.4497 52.022 19.4497C37.0449 19.4497 26.3502 27.075 26.3502 40.2648C26.3502 53.4546 38.0207 59.0191 51.4417 61.9009L69.3332 65.6139C98.1204 71.3811 108.624 85.3952 108.624 105.386C108.624 132.796 85.8664 149.074 55.9122 149.074C20.3205 149.074 0.678492 130.529 0.678492 105.386Z" fill="white"/>
</svg>
