<svg width="90" height="68" viewBox="0 0 90 68" fill="none" xmlns="http://www.w3.org/2000/svg">
<g id="Layer_1" clip-path="url(#clip0_4944_3341)">
<path id="Vector" d="M87.6179 1.59626C86.838 1.07426 85.9714 0.81153 85.0402 0.741844C84.4658 0.600013 83.8929 0.565741 83.3235 0.766634C82.7438 0.560894 82.1676 0.584541 81.5945 0.793925C78.2829 0.484065 75.1019 1.63318 71.8205 1.66048C70.9998 1.81798 70.182 1.99356 69.3578 2.13003C64.5928 2.91902 59.7823 3.48462 55.1719 5.02386C49.1077 6.37075 43.3117 8.38944 38.0676 11.7904C31.6936 15.2804 26.3563 19.8631 22.7091 26.2273C19.6519 30.6849 18.4865 35.7371 18.0197 41.0089C17.8885 41.5493 17.7076 42.083 17.6335 42.631C16.4672 51.2558 12.0716 57.4794 3.93707 60.9343C3.05114 61.24 2.16495 61.5456 1.27908 61.8513C1.27903 61.8513 1.27913 61.8513 1.27908 61.8513C1.07282 62.0978 0.656602 62.5232 0.691659 62.564C1.19674 63.1507 1.90093 62.9111 2.44533 62.7348C6.89987 61.2921 11.0019 59.2356 14.2369 55.7427C18.4016 51.2458 19.6412 45.6674 20.1811 39.8295C20.9098 37.0312 21.6384 34.233 22.3671 31.4347C23.0315 30.2579 23.696 29.0811 24.3605 27.9043C25.7335 26.1204 26.9609 24.2328 28.3005 22.425L28.3025 22.4226C30.1372 21.2577 31.3636 19.4587 32.935 18.0192C34.9279 15.9566 37.5395 14.7414 39.8036 13.0503C44.0876 11.0054 48.3867 8.97765 52.9987 7.76837C56.756 6.78327 60.5562 5.96079 64.3371 5.06622C64.3369 5.06622 64.3372 5.06622 64.3371 5.06622C65.9346 4.89235 67.5325 4.71839 69.13 4.54452C72.7791 4.10648 76.4399 3.75516 80.0576 3.08497C80.3261 3.02481 80.5622 2.94319 80.7731 2.84469C81.7657 2.83714 82.7583 2.82959 83.751 2.82204C84.595 2.99986 85.4391 3.17773 86.2832 3.35555C86.4598 3.86432 87.2651 3.84375 87.2602 4.5054C87.7503 4.87229 87.5552 5.33335 87.4374 5.78374L86.7444 6.56612C86.5934 6.52665 86.4456 6.53357 86.3022 6.61035C85.987 6.92479 85.6718 7.23923 85.3565 7.55367C85.1259 7.98849 84.4887 8.00406 84.2228 8.40247C83.2827 8.4434 82.7799 9.27985 82.0495 9.70081C79.4103 11.4286 76.2825 12.0625 73.5054 13.4814C72.258 13.664 71.125 14.1577 70.0278 14.7486C68.8614 15.0098 67.7188 15.3009 66.4921 15.3295C65.0902 15.3622 63.6733 15.5961 62.3044 15.9177C61.2373 16.1684 60.2082 16.7595 60.5585 18.1196C60.9052 19.4655 62.0147 19.4795 63.1412 19.2376C65.5079 18.7292 67.7307 17.792 69.983 16.9433C69.9829 16.9433 69.9831 16.9433 69.983 16.9433C71.928 17.5116 74.0089 17.3049 75.9366 18.0187C77.3549 18.5439 77.7156 19.2784 76.6711 20.4837C76.3533 20.8503 76.0475 21.2272 75.7363 21.5994C75.7362 21.5994 75.7363 21.5994 75.7363 21.5994C71.5395 24.8345 66.7209 26.9639 61.9934 29.2551C58.9649 30.4242 55.9316 31.5813 52.9117 32.7718C52.2513 33.0322 51.542 33.3719 51.8381 34.3053C52.1168 35.1842 52.8341 35.1996 53.5726 35.0456C55.2919 34.6868 57.0069 34.3075 58.7235 33.9365L60.2936 33.8347C61.0002 33.8319 61.7067 33.8291 62.4132 33.8263C62.5597 33.8308 62.7061 33.8352 62.8526 33.8397C63.651 34.1976 64.8497 34.0881 65.0119 35.236C65.163 36.3058 64.148 36.7478 63.4716 37.3389C63.3713 37.4266 63.2993 37.5466 63.2154 37.6529C62.0832 38.2313 60.9511 38.8096 59.819 39.388C58.0501 39.7267 56.3859 40.6573 54.4974 40.3202C53.5127 40.2164 53.0307 40.6934 53.0784 41.6418C53.1219 42.5076 53.7271 42.8147 54.5147 42.8272C55.1435 42.8372 55.7728 42.8133 56.4019 42.8043C57.0206 43.1353 57.6884 43.4383 56.7636 44.1868C55.949 44.846 55.161 45.5377 54.3613 46.2151C53.6954 46.6328 52.7629 46.444 52.2224 47.1469C50.2726 48.1822 48.068 48.4777 46.0315 49.2598C45.182 49.5861 44.0893 49.8345 44.3581 51.0471C44.5876 52.0826 45.5853 51.7206 46.3239 51.7417C46.7476 51.7538 47.1817 51.706 47.5934 51.7816C48.9729 52.0348 49.6096 52.8355 48.4926 53.9243C46.9981 55.381 45.4869 56.9499 43.2125 57.2316C41.06 58.1242 38.7684 58.6438 36.6617 59.6546C36.5722 59.7403 36.501 59.8257 36.4355 59.9109C35.5663 60.1419 34.697 60.373 33.8278 60.6041C32.8116 60.8767 31.7954 61.1492 30.7792 61.4219C30.5312 61.4742 30.2832 61.5266 30.0352 61.579C29.5321 61.5479 29.1377 61.655 29.1441 62.2725C28.4499 62.3219 27.7558 62.3713 27.0616 62.4208C26.6132 62.5534 26.1649 62.6861 25.7166 62.8188C25.101 62.696 24.563 62.9124 24.0412 63.199C23.8955 63.1681 23.7497 63.1373 23.6039 63.1063C23.366 63.1486 23.128 63.1909 22.89 63.2331C22.6217 63.3982 22.248 63.3211 21.9963 63.5242C21.9818 63.5057 21.9725 63.4922 21.9578 63.4733C21.6232 63.3534 21.311 63.3593 21.0445 63.6302C20.6466 63.7597 20.2571 63.9305 19.8495 64.0125C15.3649 64.9146 10.8358 65.0605 6.27332 64.9147C4.00946 64.8424 3.69939 65.3814 4.43979 67.346C10.1778 67.772 15.8647 67.4616 21.4833 66.1713C22.5362 66.4825 23.3974 65.567 24.4249 65.7156C24.6732 65.4477 25.1134 65.5849 25.3596 65.3137C25.47 65.412 25.57 65.4118 25.6597 65.3131C25.6586 65.3182 25.6589 65.3233 25.6576 65.3284C25.821 65.4614 25.9936 65.4817 26.1773 65.3718C26.3949 65.3292 26.6125 65.2866 26.83 65.244C28.37 64.8898 29.9475 64.6608 31.3649 63.8974C31.3493 63.813 31.3139 63.74 31.2916 63.6595C31.3219 63.6656 31.3442 63.6768 31.3761 63.682C31.6475 63.8655 31.9049 63.8528 32.1472 63.6276L32.0906 63.5099C32.6754 63.4045 33.2602 63.299 33.845 63.1935C34.1616 63.3392 34.2804 63.2356 34.3155 63.0265C34.6204 63.0536 34.8895 62.9648 35.1182 62.744C35.4568 62.0333 36.3013 62.4118 36.7783 61.9994C38.1799 62.2547 39.2849 61.3268 40.5527 61.0469C40.8381 60.8564 41.1409 60.7069 41.4511 60.5753C41.7078 60.5156 41.9517 60.421 42.1852 60.2977C42.3345 60.2475 42.4842 60.1983 42.6345 60.1505C42.8116 60.0863 42.9843 60.0132 43.1492 59.9215C43.2241 59.8621 43.3032 59.8106 43.3795 59.7538C43.5919 59.7072 43.8043 59.6606 44.0167 59.614C44.6082 59.2467 45.1997 58.8794 45.7911 58.5121C46.8036 58.553 47.2287 57.5655 48.0334 57.2427C49.1538 56.5402 50.3134 55.8789 50.8574 54.5724C51.4851 53.0049 51.1485 51.5631 50.0597 50.1841C51.0018 49.993 51.5966 49.3978 52.4185 49.5208C53.7452 49.2309 54.9363 48.6618 55.9874 47.8042C57.69 46.2816 60.0989 45.1796 59.1147 42.1297C58.9448 41.6035 59.6716 41.4441 60.2028 41.4909C60.9663 41.6099 61.6243 41.4887 61.9943 40.7115C62.8926 40.1381 63.791 39.5647 64.6893 38.9912C67.4787 38.2669 68.4858 35.4515 66.665 33.4677C65.5586 32.5314 64.2903 31.9541 62.8484 31.7616C62.9887 31.4709 63.129 31.1802 63.2693 30.8896C64.7428 30.1974 66.2367 29.5448 67.6857 28.8051C71.3336 26.943 74.9755 25.0622 77.7601 21.9408C77.8615 21.9406 77.9628 21.9416 78.0641 21.9439C79.4776 20.7912 79.6132 19.378 78.9177 17.7953C78.6698 17.5237 78.4218 17.2521 78.1738 16.9804C77.8218 15.8828 76.9121 16.0406 76.067 16.053C76.1557 16.0921 76.2444 16.1311 76.3331 16.1702C76.2411 16.1384 76.1519 16.1006 76.067 16.053L75.2569 16.0112C75.0867 15.7296 74.9164 15.4482 74.7462 15.1667L74.895 15.1105L75.0518 15.1373C75.9574 15.2638 76.7645 15.1302 77.3091 14.303C78.1915 14.3834 78.9985 14.2943 79.4298 13.3592C81.4175 12.4082 83.4053 11.4572 85.3929 10.5061C85.6971 10.2295 86.0012 9.95296 86.3053 9.67638C87.2113 9.16839 88.0079 8.55659 88.364 7.52685C88.6679 7.09652 88.9718 6.66613 89.2757 6.2358C90.0747 4.21075 89.423 2.69933 87.6179 1.59626ZM73.1261 16.9434C73.2293 16.912 73.3335 16.8726 73.4379 16.832C73.4881 16.8687 73.5319 16.9076 73.5844 16.9434H73.1261Z" fill="white"/>
</g>
<defs>
<clipPath id="clip0_4944_3341">
<rect width="88.9226" height="66.9013" fill="white" transform="translate(0.689575 0.624023)"/>
</clipPath>
</defs>
</svg>
