<svg width="89" height="58" viewBox="0 0 89 58" fill="none" xmlns="http://www.w3.org/2000/svg">
<g id="Layer_1" clip-path="url(#clip0_4944_3338)">
<path id="Vector" d="M88.3276 50.7029C88.3302 50.707 88.3316 50.7108 88.3341 50.7149C88.3351 50.7154 88.336 50.716 88.337 50.7166L88.3276 50.7029Z" fill="white"/>
<path id="Vector_2" d="M88.3339 50.7141L87.5062 50.2147C87.3477 50.0979 87.1735 50.0122 86.9853 49.9549C86.2284 49.8727 85.7314 50.3625 85.1961 50.7669C84.6931 51.1767 84.1038 51.4315 83.5254 51.7061C83.3524 51.8146 83.1712 51.9013 82.986 51.9776C82.501 52.1508 81.9665 52.2121 81.5201 52.4723C81.4118 52.5111 81.3019 52.5455 81.1964 52.5916C81.0797 52.6811 81.0004 52.796 80.9422 52.9247C80.1558 52.8015 79.5988 53.4882 78.8834 53.6152C78.883 53.6153 78.8826 53.6153 78.8822 53.6155C78.7549 53.5571 78.6442 53.5796 78.5501 53.683C78.2161 53.6555 77.8885 53.6565 77.5749 53.721C77.3809 53.6439 77.1526 53.5789 76.8768 53.5307C72.9222 53.7505 69.0322 54.4642 65.1209 55.0035C62.4099 55.3773 59.8258 55.2368 57.5692 53.5306C57.6481 53.3681 57.7369 53.2085 57.823 53.0495C57.8816 52.9788 57.9215 52.9255 57.9761 52.8588C58.1972 52.6969 58.4206 52.5385 58.6522 52.3931C59.2834 51.997 59.8797 51.5304 59.3972 50.743C58.9817 50.0647 58.4306 50.04 57.8791 50.3569C57.7208 50.3191 57.5646 50.2816 57.3724 50.2436C55.1437 50.7071 52.9292 51.2249 50.7682 51.9494C49.9777 52.3357 49.1295 52.2441 48.2925 52.2547C47.7769 52.2628 47.2627 52.2823 46.7501 52.3519C45.7592 52.6187 44.8319 52.481 43.9682 51.9298C42.098 50.3463 41.9008 49.0131 43.2392 46.9989C44.9484 44.427 47.2329 42.4321 49.6849 40.598C50.3899 40.0707 51.0115 39.4037 50.5415 38.4434C50.0204 37.3786 49.0553 37.4763 48.1424 37.8067C46.6104 38.3612 45.0678 38.8939 43.5858 39.5797C43.2431 39.6637 42.9434 40.006 42.5859 40.0347C42.4416 40.0149 42.3021 39.9809 42.1747 39.9107C42.1689 39.9068 42.1631 39.9033 42.1572 39.8992C42.1288 39.8827 42.1035 39.8569 42.0763 39.8368C42.6093 39.3618 43.1868 38.9238 43.8156 38.5585C43.9706 38.4384 44.1355 38.3287 44.3005 38.219C44.6574 38.1219 44.95 37.9378 45.1133 37.5783C45.2969 37.392 45.4616 37.1855 45.5648 36.9141C45.6889 35.0672 44.5525 34.9561 43.2075 35.2853C41.2043 35.7757 39.3552 36.7009 37.4386 37.435C36.0447 37.9689 34.6405 38.4789 33.1441 38.5865C31.9207 38.6745 30.8456 38.2396 30.3741 37.0492C29.9327 35.9349 30.7305 35.1866 31.4884 34.527C32.4004 33.7333 33.5299 33.2529 34.505 32.5548C35.5009 31.8418 36.893 31.6295 37.4406 30.3403C38.0088 30.0859 38.5885 29.8508 39.123 29.5392C39.6664 29.2225 40.2968 28.8418 40.0898 28.0674C39.8779 27.2746 39.1981 27.2901 38.5287 27.3623C38.2493 27.3925 37.9641 27.3696 37.6815 27.3709C37.55 27.5093 37.3805 27.5502 37.1979 27.5576L37.6815 27.3709C35.0947 27.4751 32.678 28.0899 30.4469 29.2616C29.8935 29.4592 29.3412 29.66 28.7797 29.8359C28.3848 29.9593 28.0141 30.1355 27.6486 30.3267C27.2113 30.5703 26.726 30.6349 26.2439 30.7132C24.688 31.1112 23.2216 31.8694 21.5574 31.8731C21.1611 31.8132 21.0992 31.6083 21.2892 31.2944C21.5792 30.8627 21.9246 30.4723 22.3381 30.1437C22.8296 29.7487 23.2595 29.2832 23.7555 28.8925C24.1913 28.5557 24.6737 28.2888 25.1298 27.9834C26.9012 26.8059 28.7927 25.8134 30.5037 24.5449C30.8085 24.2399 31.0188 23.8902 31.0188 23.4436C31.0145 23.4227 31.0039 23.4072 30.9993 23.3866C31.2867 23.2433 31.5205 23.0505 31.5381 22.6583C31.678 20.7202 31.5898 20.649 29.8733 21.3149C29.7455 21.4198 29.6178 21.5247 29.4902 21.6296C29.4577 21.6143 29.4312 21.5937 29.398 21.5791C29.1149 21.5296 28.8078 21.4764 28.5626 21.619C24.7869 23.8155 20.9447 25.9122 17.5915 28.7514C17.576 28.7655 17.559 28.7779 17.5434 28.7918C16.8753 28.7031 16.3216 29.1261 15.7363 29.3819C13.7304 30.2585 11.9121 31.4854 9.9634 32.4721C9.7222 32.6463 9.46526 32.7927 9.21556 32.9518C8.51746 33.0618 7.94924 33.395 7.49162 33.9181C7.32771 33.9976 7.17119 34.0898 7.00467 34.1647C6.83941 34.2545 6.67945 34.3514 6.52834 34.4641C6.36755 34.5904 6.18968 34.683 6.01878 34.7893C5.77253 34.8686 5.54782 34.9879 5.34672 35.1515C5.10462 35.2586 4.86315 35.3672 4.60356 35.4406C4.05025 35.5683 3.54496 35.9785 2.91957 35.7389C2.42897 34.987 3.05447 34.5046 3.36552 33.9408C4.25327 32.8659 5.34036 31.9772 6.24061 30.9116C6.73428 30.2216 7.46775 29.7873 8.06096 29.2053C10.7075 26.3989 13.6151 23.8676 16.4995 21.3105C16.8048 21.0936 17.0952 20.8582 17.3851 20.622C18.3651 20.1804 19.1321 19.4859 19.7655 18.6327C20.1155 18.3581 20.4739 18.094 20.8512 17.8539C21.6468 17.1815 22.7128 16.7161 22.8476 15.5418C23.8135 15.6753 24.4324 14.9818 25.1064 14.4783C30.1276 10.7278 35.1866 7.04173 41.02 4.58604C41.4083 4.42254 41.7914 4.22988 41.9718 3.80324C41.8948 3.71584 41.8441 3.62724 41.8073 3.53802C41.8374 3.55037 41.8611 3.56276 41.8933 3.57506C42.4985 3.98393 42.8611 3.69673 43.1345 3.15332C43.1899 3.2352 43.2634 3.31968 43.3691 3.40875C43.9209 3.64438 44.4766 3.53048 45.0392 3.44641C49.837 2.72934 53.4608 4.52078 56.0428 8.55025C56.998 10.0412 57.7342 11.6407 58.4819 13.2375C58.7618 13.8353 58.9418 14.5409 59.6114 14.8137C59.3025 15.4332 59.5306 16.0713 59.7452 16.6465C61.4982 21.3472 62.7136 26.2438 64.8089 30.8131C65.6772 32.7066 66.2436 34.8366 68.052 36.1872C68.0645 36.1915 68.0762 36.1944 68.0887 36.1987C67.9908 36.6513 68.247 37.0489 68.4909 37.4265C71.5798 42.208 75.4603 46.1422 80.673 48.6354C81.4291 48.7172 82.1436 49.0111 82.9042 49.0609C84.6126 48.8779 84.7198 48.7598 84.0788 47.7596C80.4423 46.5539 77.4391 44.4088 74.7555 41.7188C72.7989 39.7576 71.3542 37.42 69.6432 35.2804C67.2482 31.0115 65.4251 26.5142 64.0665 21.8139C63.228 18.9127 62.4511 15.9801 61.0799 13.2588C60.006 9.70791 58.2882 6.52239 55.5562 3.96185C52.5224 1.11843 48.9439 0.0893206 44.8434 0.999521C44.0463 0.845453 43.2972 0.972333 42.5957 1.3786C42.3502 1.41527 42.1048 1.45199 41.8594 1.48871C33.9179 4.31343 27.4456 9.45409 20.9827 14.6097C14.1425 19.7041 7.91451 25.475 2.06298 31.6541C1.39306 32.3615 0.831727 33.2288 0.426187 34.1154C-0.773035 36.7375 0.650471 38.6706 3.54363 38.3719C4.30111 38.2937 5.09308 38.0667 5.76269 37.7099C8.44381 36.2814 11.083 34.775 13.7377 33.2974C15.2935 32.5069 16.8493 31.7164 18.4318 30.9123C18.4334 33.8706 19.2514 34.5222 22.3128 34.2063C24.6567 33.9644 26.8325 33.1596 29.0225 32.3829C29.29 32.5085 29.5576 32.6342 29.8252 32.7598C28.229 34.2166 27.0314 35.8322 27.9739 38.1308C28.8084 40.1662 30.8478 41.1538 33.6208 41.0028C35.1984 40.917 36.6598 40.3644 38.2421 39.9212C38.5633 40.7887 38.3994 41.9698 39.6389 42.2496C40.4374 42.5534 41.2697 42.4023 42.0829 42.3932C43.6975 42.3751 43.5769 42.92 42.6015 43.8081L42.6562 43.82C41.7683 44.4808 41.3618 45.4679 40.8855 46.4078C39.9126 48.0653 39.7245 49.7851 40.4713 51.5792C41.117 53.1333 42.2848 53.9816 43.9607 54.1434C44.7729 54.6141 45.6516 54.6428 46.553 54.5212C46.9764 54.6974 47.4014 54.7098 47.8284 54.5341C49.0036 54.6436 50.1717 54.6929 51.2658 54.1316C52.8633 53.8872 54.4825 53.5877 55.5108 54.7783C55.6644 55.0278 55.8274 55.3137 56.0095 55.6439C56.0248 55.6716 56.0497 55.6927 56.0662 55.7197C56.1124 55.8342 56.1584 55.9495 56.1992 56.078C56.2117 56.1176 56.3224 56.1263 56.3872 56.1494L56.4267 56.1802C58.504 58.0871 61.095 57.92 63.6259 57.8971C66.7417 57.869 69.7763 56.9247 72.9081 57.0205C74.6145 57.1466 76.3351 57.3662 77.8542 56.2743C77.8934 56.2079 77.93 56.1424 77.9661 56.077C78.9255 55.9481 79.9118 55.9382 80.7843 55.4237C81.6928 55.3368 82.6056 55.262 83.2867 54.5383L83.4843 54.5329L83.6632 54.6165C85.0405 53.9995 86.4177 53.3824 87.7949 52.7654C88.7979 52.2924 88.8703 51.5812 88.3339 50.7141Z" fill="white"/>
</g>
<defs>
<clipPath id="clip0_4944_3338">
<rect width="88.6647" height="57.2331" fill="white" transform="translate(0 0.67749)"/>
</clipPath>
</defs>
</svg>
