<svg width="171" height="100" viewBox="0 0 171 100" fill="none" xmlns="http://www.w3.org/2000/svg">
<g id="Layer_1" clip-path="url(#clip0_4944_3336)">
<path id="Vector" d="M78.9154 89.6144C75.1611 94.9568 65.8804 97.4527 60.1654 94.6548C59.9447 94.5468 59.7289 94.4261 59.5206 94.2957C56.6772 92.5152 56.4427 92.4616 52.8683 92.7984C46.2219 93.4245 40.8721 89.4336 39.5179 82.6492C35.6185 84.5369 31.5836 85.8264 27.2641 86.0913C22.7561 86.3677 18.3308 85.9798 14.0451 84.5267C2.57432 80.6376 -2.76233 68.4509 2.00173 56.8751C4.07178 51.8453 7.32364 47.5828 12.1656 45.038C14.5018 43.8102 16.6198 42.8074 18.2732 40.5559C19.6668 38.6582 22.1724 38.4144 24.4115 39.4604C25.5557 39.9949 26.0466 39.7183 26.7892 38.8141C28.685 36.5057 31.0696 35.0847 34.1772 36.1406C35.9291 36.7358 35.4053 35.1185 35.6036 34.6439C38.0029 28.9027 42.0296 25.132 48.2113 23.8562C51.6152 23.1537 54.2948 24.7402 56.8616 26.8676C59.4719 17.5386 65.2607 10.7982 73.2883 5.92822C81.0587 1.21427 89.5231 -0.681162 98.559 0.774538C115.295 3.47079 127.127 17.1064 126.479 33.5038C130.574 29.9596 134.999 29.2359 139.411 32.2336C143.752 35.1838 145.485 39.4898 144.445 45.0338C147.663 43.7366 149.912 44.7366 151.382 47.6567C151.958 48.8008 152.668 47.7837 153.252 47.6226C161.08 45.4669 168.802 49.5387 170.534 57.0953C171.636 61.9051 170.889 66.5128 167.158 70.206C166.618 70.7405 166.139 71.2024 166.147 72.0761C166.231 81.9204 152.557 86.8236 145.64 81.8182C144.516 84.9882 142.72 87.6811 140.227 89.9094C134.039 95.4415 125.352 96.5938 117.821 92.6957C116.48 92.0016 115.688 91.8635 114.42 92.8949C112.06 94.8161 109.243 95.1236 106.541 93.6679C105.373 93.0385 105.086 93.4678 104.401 94.2181C100.138 98.8869 92.2057 100.831 86.3311 98.5437C82.2641 96.9603 79.1538 94.4096 78.8897 89.5901C80.1141 89.3379 80.6355 90.2009 81.2606 91.0024C86.1078 97.2169 95.584 98.0553 101.544 92.8278C102.77 91.7527 103.6 90.4604 103.949 88.8572C104.112 88.1075 104.407 87.2797 105.288 87.2918C106.246 87.305 106.646 88.149 106.867 88.9813C107.164 90.0975 106.622 91.6345 108.397 91.9842C110.193 92.3381 111.921 92.2035 113.272 90.8298C114.799 89.2774 116.24 89.2956 118.154 90.3242C127.118 95.1416 136.226 92.6113 141.658 83.9835C142.536 82.5878 142.982 80.716 144.414 79.9198C145.92 79.0826 147.299 80.6965 148.786 81.0715C153.55 82.2733 157.624 81.3241 161.178 77.9228C163.044 76.1372 163.983 74.0638 163.713 71.4695C163.569 70.0843 163.499 68.7756 165.482 68.6148C166.401 68.5403 166.747 67.6244 167.149 66.9005C169.626 62.4319 169.17 56.8156 166.037 53.1359C163 49.5698 157.759 48.3731 152.845 50.2786C151.027 50.9835 149.957 50.8143 149.16 48.8368C148.09 46.1848 146.489 46.0883 144.544 48.3491C144.027 48.9509 143.648 49.9807 142.634 49.5474C141.752 49.1701 141.86 48.1687 141.833 47.3448C141.807 46.5099 141.998 45.6972 142.132 44.8788C142.418 43.1305 142.286 41.4099 141.798 39.7076C139.767 32.6216 132.647 30.7906 127.48 36.0208C126.756 36.7537 126.149 37.9946 124.871 37.4334C123.69 36.9151 123.882 35.6243 123.857 34.5663C123.674 26.9806 121.782 20.0025 116.812 14.0406C111.468 7.6291 104.481 4.10978 96.3492 3.43911C81.83 2.24166 70.5423 8.14786 62.4205 20.1608C60.4351 23.0973 59.3016 26.3689 58.8074 29.8717C58.7059 30.5908 58.7303 31.4929 57.8023 31.6716C56.8896 31.8474 56.4839 31.0409 56.1681 30.3962C53.7817 25.5261 48.4366 25.0107 43.8494 28.334C42.2994 29.457 40.9191 30.815 39.7848 32.3471C37.4984 35.4355 36.7939 38.7566 38.611 42.3796C39.0238 43.2027 39.959 44.3324 38.9452 45.0504C37.7359 45.9069 36.8302 44.6983 36.0429 43.8655C35.2165 42.9913 34.9661 41.8386 34.6253 40.7234C33.8646 38.234 32.2574 37.6925 30.107 39.1876C28.4606 40.3323 27.7911 41.926 27.9773 43.9248C28.0499 44.704 28.4707 45.7892 27.4514 46.1242C26.3258 46.4942 25.6705 45.521 25.1051 44.6803C24.9196 44.4044 24.8239 44.0803 24.756 43.7536C24.5393 42.7108 24.5333 41.5146 23.1018 41.306C21.5721 41.0831 20.3334 41.6245 19.3591 42.8052C18.8739 43.3932 18.627 44.1 18.3568 44.7963C17.8484 46.1067 17.032 46.8786 15.4968 46.4875C14.5465 46.2454 13.6699 46.524 12.9061 47.0804C5.90591 52.1798 1.4651 59.6614 3.32245 69.0079C4.56927 75.2821 8.58272 79.4888 14.5468 81.206C23.1052 83.67 31.7557 83.8084 40.1013 79.943C40.478 79.7685 40.8412 79.5578 41.2341 79.4265C41.9194 79.1976 42.6985 78.6914 43.2628 79.5049C43.7517 80.2097 43.0646 80.7186 42.6872 81.2321C41.3784 83.0137 42.2701 84.5833 43.27 86.0248C45.5882 89.3669 50.1869 90.8851 54.1155 89.7259C55.0745 89.443 55.9725 89.0051 56.9023 88.6489C58.2766 88.1224 59.3799 88.3119 59.7903 89.9378C60.3564 92.1807 62.0889 92.8502 64.0873 93.0772C67.8543 93.505 71.3496 92.6213 74.5869 90.6968C75.8719 89.9328 77.0792 89.0524 78.2212 88.0799C78.8381 87.5545 79.4555 86.8864 80.4091 87.2657C80.6278 87.3527 80.7319 87.6247 80.6888 87.8944C80.5267 88.9081 80.0111 89.5601 78.9154 89.6144Z" fill="white"/>
</g>
<defs>
<clipPath id="clip0_4944_3336">
<rect width="170.74" height="99.2084" fill="white" transform="translate(0.260468 0.294678)"/>
</clipPath>
</defs>
</svg>
